<?xml version="1.0" encoding="UTF-8"?>
<svg xmlns="http://www.w3.org/2000/svg" xmlns:xlink="http://www.w3.org/1999/xlink" viewBox="0 0 74.6568 58.2596" width="50">
  <defs>
    <style>
      .cls-1 {
        fill: #e9e9e9;
      }

      .cls-2 {
        opacity: .5;
      }

      .cls-2, .cls-3 {
        fill: #c1c1c1;
        mix-blend-mode: overlay;
      }

      .cls-4 {
        fill: url(#linear-gradient-5);
      }

      .cls-5 {
        fill: #d8d8d8;
      }

      .cls-6 {
        fill: url(#linear-gradient);
      }

      .cls-7 {
        isolation: isolate;
      }

      .cls-8 {
        fill: #ba7302;
      }

      .cls-9 {
        fill: url(#linear-gradient-2);
      }

      .cls-10 {
        fill: #c6c2c4;
      }

      .cls-11, .cls-12 {
        mix-blend-mode: multiply;
        opacity: .1;
      }

      .cls-13 {
        fill: #e3a74f;
      }

      .cls-14 {
        fill: #fdaa3e;
      }

      .cls-15 {
        fill: url(#linear-gradient-4);
      }

      .cls-16 {
        fill: url(#linear-gradient-3);
      }

      .cls-17 {
        fill: #8b003a;
      }

      .cls-12 {
        fill: #dcdbe4;
      }
    </style>
    <linearGradient id="linear-gradient" x1="123.9121" y1="314.7036" x2="163.124" y2="314.7036" gradientTransform="translate(-161.7449 312.4839) rotate(-120.0007)" gradientUnits="userSpaceOnUse">
      <stop offset="0" stop-color="#ac005d"/>
      <stop offset=".0443" stop-color="#b30066"/>
      <stop offset=".1556" stop-color="#b8006b"/>
      <stop offset=".2736" stop-color="#b50053"/>
      <stop offset="1" stop-color="#b5005b"/>
    </linearGradient>
    <linearGradient id="linear-gradient-2" x1="126.5752" y1="71.5958" x2="158.053" y2="71.5958" gradientTransform="translate(148.7177 133.4821) rotate(-120.0007) scale(1 -1)" gradientUnits="userSpaceOnUse">
      <stop offset="0" stop-color="#661644"/>
      <stop offset=".995" stop-color="#811150"/>
    </linearGradient>
    <linearGradient id="linear-gradient-3" x1="123.9299" y1="304.3549" x2="133.7676" y2="304.3549" gradientTransform="translate(-161.7449 312.4839) rotate(-120.0007)" gradientUnits="userSpaceOnUse">
      <stop offset="0" stop-color="#d8981e"/>
      <stop offset=".1622" stop-color="#dda11c"/>
      <stop offset="1" stop-color="#f4a718"/>
    </linearGradient>
    <linearGradient id="linear-gradient-4" x1="123.9104" y1="338.5817" x2="133.7473" y2="338.5817" xlink:href="#linear-gradient-3"/>
    <linearGradient id="linear-gradient-5" x1=".5465" y1="16.9913" x2="57.9752" y2="16.9913" gradientTransform="translate(4.8822 -.0154) rotate(-1.0142)" gradientUnits="userSpaceOnUse">
      <stop offset="0" stop-color="#e3a74f"/>
      <stop offset=".995" stop-color="#fdb543"/>
    </linearGradient>
  </defs>
  <g class="cls-7">
    <g id="Layer_1" data-name="Layer 1"/>
    <g id="Layer_2" data-name="Layer 2">
      <g id="Layer_1-2" data-name="Layer 1">
        <g>
          <g>
            <path class="cls-6" d="M74.645,25.9129c-.0088-.4234-.0673-.8145-.2251-1.1871-.0478-.1474-.1186-.2846-.1948-.4223-.1777-.314-.4219-.6182-.7475-.9214-.2354-.2168-.5196-.4316-.8531-.6475-.0884-.0688-.185-.1382-.2934-.1967-.0879-.0484-.1675-.108-.2642-.1573-.0503-.0298-.0996-.0683-.1587-.0879l-.1953-.1186-1.9922-1.147L43.2764,5.7547,0,30.7478l28.3486,16.8721,.5674,.3428,1.6392,.9819,.1958,.5586,.1367,8.6816,43.3057-25.0049v-.0087c.2754-.1675,.4516-.5215,.4634-1.0293l-.0118-6.229Z"/>
            <path class="cls-17" d="M31.4214,57.1101c-.0093,1.0313-.73,1.4429-1.6289,.9273L.0156,40.8699l-.0092-.7676H.5777v-.0098l4.5771,.6368,21.3335,5.2695,2.1904,1.2559c.5708,.3173,1.0391,.6357,1.4131,.9531-.0371,0-.0742-.0073-.1025-.0171,.0464,.1587,.1216,.3081,.2055,.457,.1963,.3384,.459,.6743,.8145,1.0029,.019-.0942,.0376-.1792,.0654-.2529,.2339,.459,.3374,.9365,.3374,1.4693l.0093,6.2431Z"/>
            <polygon class="cls-9" points=".0195 40.1023 28.6572 56.6458 28.9507 56.4773 28.9487 48.2473 2.5542 35.3709 .6782 39.72 .0195 40.1023"/>
            <polygon class="cls-10" points="27.5376 47.4334 28.9487 48.2473 28.9507 56.4773 27.5381 55.6619 27.5376 47.4334"/>
            <polygon class="cls-5" points="27.5342 55.656 27.5303 55.6184 27.5376 52.0945 27.5332 50.4456 27.5361 50.0339 27.5366 48.5515 27.5361 47.4358 27.5381 47.4255 1.2486 32.2415 .5899 31.8665 .5606 31.8538 .5176 31.8298 .5244 31.8757 .5186 32.9651 .5254 34.8411 .5147 36.4783 .5205 36.4866 .5269 40.053 .5235 40.0642 5.0889 42.7102 6.71 43.6365 27.2861 55.5086 27.5342 55.656"/>
            <polygon class="cls-12" points="27.5352 55.656 27.5376 52.1228 .5205 36.4866 .5269 40.053 4.8374 42.5535 6.4634 43.4871 6.71 43.6365 27.5352 55.656"/>
            <g class="cls-11">
              <polygon class="cls-5" points=".5098 32.9651 .5161 34.8411 .5288 34.8455 .5816 34.885 27.5361 50.4495 27.5376 50.0359 27.5318 48.5613 .586 33.011 .521 32.969 .5098 32.9651"/>
            </g>
            <polygon class="cls-17" points=".0137 30.7322 26.4849 45.9998 26.4878 46.823 .0195 31.5437 .0137 30.7322"/>
            <path class="cls-16" d="M35.1812,44.3259l2.2641-1.3071c.8828,.5884,1.4375,1.1821,1.729,1.8272,.2056,.4267,.2906,.8706,.294,1.3618l.0024,2.0097,.0029,4.2242c0,.4516-.1396,.7837-.3691,.9785l-2.2651,1.3047c.2314-.1905,.3711-.5249,.3711-.9761l-.0044-4.2246-.002-2.0108c-.0029-.4902-.0869-.934-.293-1.3588-.2929-.6465-.8476-1.2408-1.7299-1.8287Z"/>
            <path class="cls-15" d="M64.8325,27.2297l2.2637-1.3046c.8828,.5859,1.437,1.1801,1.729,1.8261,.2056,.4258,.2905,.8697,.2935,1.3599l.0029,2.0107,.0029,4.2242c0,.4516-.1396,.7837-.3696,.9775l-2.2647,1.3057c.232-.1914,.3711-.5249,.3711-.9761l-.0039-4.2241-.0014-2.0113c-.0039-.4907-.0884-.935-.294-1.3593-.2925-.646-.8481-1.2412-1.7295-1.8287Z"/>
            <g>
              <path class="cls-17" d="M31.0747,49.3977c-.0278,.0737-.0464,.1587-.0654,.2529-.3555-.3286-.6182-.6645-.8145-1.0029-.0839-.1489-.1591-.2983-.2055-.457,.0283,.0098,.0654,.0171,.1025,.0171,.4497,.3852,.7774,.7783,.9829,1.1899Z"/>
              <path class="cls-2" d="M72.7027,24.8533c-6.9268,3.9878-39.5215,22.7378-40.4297,23.3262-.4678,.31-.9825,.6762-1.1983,1.2182-.2055-.4116-.5332-.8047-.9829-1.1899,.1314,.0381,.2813,.0566,.4497,.0473,.3364-.0263,1.0674-.2895,2.0972-.8701,.936-.5053,33.146-18.6465,40.064-22.5317Z"/>
            </g>
          </g>
          <g>
            <path class="cls-13" d="M39.4429,8.2288c-.4468-.2569-.7979-.4395-1.2451-.1704L7.8994,26.2742l.041,2.272,23.0088,12.2822L63.2432,21.4172l-23.8003-13.1884Z"/>
            <path class="cls-4" d="M39.3018,.303c-.4463-.2564-.7964-.4395-1.2447-.1704L5.7749,19.5413l25.0332,13.3603L63.103,13.491,39.3018,.303Z"/>
            <path class="cls-8" d="M30.9644,41.7073L6.919,28.3889c-.7334-.4062-1.3404-1.4155-1.355-2.2539l-.1021-5.7695c-.0146-.8384,.5679-1.1895,1.3013-.7822l24.0449,13.3183,.1563,8.8057Z"/>
            <polygon class="cls-14" points="62.0772 15.052 62.2012 22.0505 63.2442 21.4251 63.2603 22.2971 30.9644 41.7073 30.8081 32.9016 63.104 13.492 63.1206 14.4236 62.0772 15.052"/>
            <g>
              <polygon class="cls-14" points="7.7232 27.9631 6.5098 27.2918 6.3848 20.2903 7.5982 20.9627 7.7232 27.9631"/>
              <polygon class="cls-5" points="30.8247 33.8274 7.5982 20.9627 7.7232 27.9631 30.9492 40.8284 30.8247 33.8274"/>
            </g>
            <polygon class="cls-1" points="62.4986 14.8005 62.6231 21.7986 30.9492 40.8284 30.8247 33.8274 62.4986 14.8005"/>
            <g class="cls-11">
              <polygon class="cls-5" points="30.8247 33.8274 30.8784 36.8655 7.6524 23.9993 7.5977 20.9641 30.8247 33.8274"/>
            </g>
            <g class="cls-11">
              <polygon class="cls-1" points="62.4986 14.8005 62.5523 17.8357 30.8784 36.8655 30.8247 33.8274 62.4986 14.8005"/>
            </g>
            <g class="cls-11">
              <polygon class="cls-5" points="30.8247 33.8274 30.8784 36.8655 7.6524 23.9993 7.5977 20.9641 30.8247 33.8274"/>
            </g>
            <g class="cls-11">
              <polygon class="cls-1" points="62.4986 14.8005 62.5523 17.8357 30.8784 36.8655 30.8247 33.8274 62.4986 14.8005"/>
            </g>
            <polygon class="cls-3" points="7.3789 19.9246 30.6524 32.9358 30.8247 33.8274 30.9507 32.9514 63.104 13.492 30.8042 32.6692 7.3789 19.9246"/>
          </g>
        </g>
      </g>
    </g>
  </g>
</svg>